<?xml version="1.0" encoding="UTF-8" standalone="no"?>
<!-- Created with Inkscape (http://www.inkscape.org/) -->

<svg
   xmlns:dc="http://purl.org/dc/elements/1.1/"
   xmlns:cc="http://creativecommons.org/ns#"
   xmlns:rdf="http://www.w3.org/1999/02/22-rdf-syntax-ns#"
   xmlns:svg="http://www.w3.org/2000/svg"
   xmlns="http://www.w3.org/2000/svg"
   xmlns:sodipodi="http://sodipodi.sourceforge.net/DTD/sodipodi-0.dtd"
   xmlns:inkscape="http://www.inkscape.org/namespaces/inkscape"
   width="210mm"
   height="297mm"
   viewBox="0 0 744.09448819 1052.3622047"
   id="svg2"
   version="1.1"
   inkscape:version="0.91 r"
   inkscape:export-filename="/var/www/dev/ico/other/screwdriver.png"
   inkscape:export-xdpi="90"
   inkscape:export-ydpi="90"
   sodipodi:docname="icons.svg">
  <defs
     id="defs4" />
  <sodipodi:namedview
     id="base"
     pagecolor="#ffffff"
     bordercolor="#666666"
     borderopacity="1.0"
     inkscape:pageopacity="0.0"
     inkscape:pageshadow="2"
     inkscape:zoom="15.839192"
     inkscape:cx="333.26913"
     inkscape:cy="362.13994"
     inkscape:document-units="px"
     inkscape:current-layer="layer2"
     showgrid="false"
     inkscape:window-width="1920"
     inkscape:window-height="1028"
     inkscape:window-x="0"
     inkscape:window-y="0"
     inkscape:window-maximized="1" />
  <metadata
     id="metadata7">
    <rdf:RDF>
      <cc:Work
         rdf:about="">
        <dc:format>image/svg+xml</dc:format>
        <dc:type
           rdf:resource="http://purl.org/dc/dcmitype/StillImage" />
        <dc:title></dc:title>
      </cc:Work>
    </rdf:RDF>
  </metadata>
  <g
     inkscape:label="Ebene 1"
     inkscape:groupmode="layer"
     id="layer1">
    <path
       style="fill:#000000"
       d="m 300.5332,697.36821 c -0.31037,-0.30996 -0.46177,-0.52427 -0.46177,-0.65363 0,-0.17619 1.06468,-1.96951 1.28782,-2.16916 0.0527,-0.0472 0.32718,-0.18231 0.60985,-0.30026 0.47505,-0.19822 0.68862,-0.38854 2.82148,-2.51432 l 2.30752,-2.29987 -0.14845,-0.18848 c -0.18371,-0.23325 -0.14005,-0.36676 0.25485,-0.77932 l 0.31065,-0.32453 -0.16342,-0.26771 c -0.31153,-0.51034 -0.14212,-1.17301 0.35264,-1.37947 0.14793,-0.0617 0.46348,-0.11223 0.70123,-0.11223 0.64103,0 0.79854,-0.0866 0.96019,-0.52783 0.60838,-1.66063 0.92926,-2.15061 1.97303,-3.01281 1.33014,-1.09876 2.92384,-1.89536 3.94061,-1.9697 l 0.54056,-0.0395 0.62572,0.62124 c 0.60996,0.6056 0.62572,0.63088 0.62572,1.004 0,1.05002 -1.08438,3.1491 -2.28157,4.41652 -0.60366,0.63908 -0.88367,0.81442 -2.12838,1.33278 -0.50999,0.21239 -0.97174,0.4463 -1.0261,0.51981 -0.0544,0.0735 -0.10038,0.29566 -0.10228,0.49366 -0.006,0.66244 -0.12295,1.05112 -0.38574,1.28561 -0.30961,0.27628 -0.77947,0.29875 -1.124,0.0537 l -0.23295,-0.16565 -0.38776,0.36223 c -0.39614,0.37006 -0.51688,0.39394 -0.79491,0.15721 -0.10531,-0.0897 -0.43437,0.20904 -2.42725,2.20332 -2.13106,2.13257 -2.32166,2.34588 -2.52016,2.82034 -0.1181,0.2823 -0.25339,0.55638 -0.30065,0.60906 -0.19992,0.22284 -1.99558,1.28613 -2.172,1.28613 -0.12953,0 -0.34412,-0.1512 -0.65448,-0.46116 z m 1.78548,-0.95595 c 0.49377,-0.3245 0.56794,-0.40858 0.75917,-0.86068 0.19378,-0.45814 0.41425,-0.7032 2.57486,-2.86189 l 2.36294,-2.36083 -0.21695,-0.21667 -0.21695,-0.21667 -2.39121,2.38071 c -2.08,2.07087 -2.4478,2.40375 -2.82609,2.55778 -0.54785,0.22308 -0.60069,0.27612 -1.13478,1.13904 l -0.43949,0.71009 0.20728,0.21608 0.20729,0.21608 0.28334,-0.1717 c 0.15584,-0.0944 0.5296,-0.33354 0.83059,-0.53134 z m 6.35718,-7.16498 -0.65119,-0.65374 -0.1835,0.17217 -0.1835,0.17216 0.65119,0.65373 0.65119,0.65374 0.1835,-0.17216 0.1835,-0.17217 -0.65119,-0.65373 z m 2.02481,0.71929 c 0.0836,-0.0835 0.12439,-0.27063 0.12469,-0.57251 5.7e-4,-0.60224 0.12192,-1.00114 0.37609,-1.23651 0.11592,-0.10736 0.58566,-0.34333 1.04386,-0.52439 1.50578,-0.595 1.88026,-0.88505 2.79145,-2.16205 0.45991,-0.64454 1.18543,-2.11841 1.31892,-2.67935 l 0.0926,-0.38932 -0.46768,-0.46707 -0.46768,-0.46706 -0.48957,0.12525 c -1.65736,0.42405 -3.82723,1.97633 -4.45648,3.18809 -0.15181,0.29234 -0.33865,0.72697 -0.4152,0.96585 -0.34178,1.06652 -0.51877,1.21448 -1.56629,1.30928 -0.36231,0.0328 -0.64249,0.0991 -0.69731,0.1651 -0.074,0.0891 0.17202,0.37518 1.28124,1.48953 0.7551,0.75859 1.38059,1.37925 1.38998,1.37925 0.009,0 0.073,-0.0558 0.14133,-0.12409 z"
       id="path4147"
       inkscape:connector-curvature="0" />
    <path
       style="fill:#f90000;fill-opacity:1;stroke:none;stroke-width:1;stroke-linejoin:round;stroke-miterlimit:4;stroke-dasharray:none;stroke-opacity:1"
       d="m 309.35331,688.86525 c -1.1902,-1.20123 -1.46332,-1.5052 -1.44374,-1.60687 0.015,-0.0779 0.20452,-0.12592 0.7885,-0.19986 0.58864,-0.0745 0.80709,-0.14722 0.98666,-0.32829 0.17178,-0.17321 0.26759,-0.36096 0.44484,-0.87162 0.17132,-0.4936 0.4564,-1.10803 0.63853,-1.37623 0.26976,-0.39725 0.86402,-0.9847 1.41916,-1.40293 0.96198,-0.72473 1.96714,-1.2381 2.92003,-1.49138 l 0.40041,-0.10643 0.46293,0.4637 0.46293,0.4637 -0.0696,0.27793 c -0.0925,0.36923 -0.29318,0.86164 -0.60328,1.48026 -0.33288,0.66406 -0.54623,1.02357 -0.88354,1.48883 -0.75413,1.04017 -1.20828,1.38467 -2.53527,1.9231 -0.55467,0.22506 -1.02512,0.46044 -1.16401,0.58239 -0.21369,0.18762 -0.36528,0.68727 -0.36917,1.21681 -0.002,0.32927 -0.0388,0.47584 -0.14578,0.58751 -0.048,0.0502 -0.0967,0.0912 -0.10803,0.0912 -0.0114,0 -0.55207,-0.53631 -1.20154,-1.1918 z"
       id="path4149"
       inkscape:connector-curvature="0" />
    <path
       style="fill:#f90000;fill-opacity:1;stroke:none;stroke-width:1;stroke-linejoin:round;stroke-miterlimit:4;stroke-dasharray:none;stroke-opacity:1"
       d="m 308.31931,689.57257 -0.63737,-0.63794 0.11898,-0.1113 c 0.24422,-0.22843 0.16186,-0.26954 0.86286,0.43079 0.34612,0.3458 0.6293,0.63778 0.6293,0.64886 0,0.0111 -0.0757,0.0848 -0.1682,0.16383 l -0.1682,0.1437 -0.63737,-0.63794 z"
       id="path4151"
       inkscape:connector-curvature="0"
       inkscape:export-xdpi="90"
       inkscape:export-ydpi="90" />
  </g>
  <g
     inkscape:groupmode="layer"
     id="layer2"
     inkscape:label="Vordergrund">
    <path
       style="fill:#000000"
       d="m 341.30152,703.31989 c -0.77506,-0.32162 -1.4905,-0.65834 -1.58985,-0.74826 -0.17068,-0.15447 -0.17733,-0.22029 -0.12046,-1.19269 l 0.0602,-1.0292 -0.25147,-0.2635 -0.25146,-0.26348 -0.96543,0.0599 c -1.1133,0.069 -1.26997,0.0374 -1.42138,-0.28699 -0.47463,-1.01671 -1.22112,-2.97017 -1.20064,-3.14187 0.0165,-0.13855 0.27936,-0.43698 0.76372,-0.86725 0.63646,-0.56537 0.7421,-0.69902 0.76444,-0.96706 0.0241,-0.28946 -0.0181,-0.34922 -0.60819,-0.86203 -0.81151,-0.70517 -0.93789,-0.85003 -0.9396,-1.07701 -0.003,-0.32635 1.1388,-3.03936 1.36781,-3.25155 0.20609,-0.19097 0.25219,-0.19627 1.20849,-0.13911 l 0.99422,0.0595 0.26036,-0.24943 0.26034,-0.24942 -0.0574,-1.04508 c -0.0538,-0.9805 -0.0464,-1.05487 0.11962,-1.20371 0.26354,-0.23629 3.0665,-1.37346 3.31256,-1.34391 0.14009,0.0168 0.43626,0.27732 0.86863,0.76404 0.56729,0.63862 0.69842,0.74204 0.96937,0.76454 0.29624,0.0247 0.34787,-0.0142 0.94668,-0.71174 0.63543,-0.74022 0.75339,-0.83475 1.04154,-0.83475 0.22946,0 3.03169,1.17742 3.23057,1.35739 0.15804,0.14304 0.16604,0.22876 0.11022,1.18341 l -0.0602,1.0292 0.25122,0.26222 0.25121,0.26221 1.05578,-0.0602 c 0.99384,-0.0567 1.06467,-0.0498 1.207,0.11639 0.23269,0.27177 1.35394,3.07661 1.32531,3.31528 -0.0167,0.13841 -0.27985,0.4373 -0.76386,0.86725 -0.63832,0.56705 -0.74204,0.6985 -0.76453,0.96906 -0.0241,0.29078 0.016,0.34893 0.56474,0.8181 0.80718,0.69009 0.98174,0.89009 0.98174,1.12474 0,0.32078 -1.19116,3.11654 -1.40129,3.28893 -0.16687,0.13687 -0.30311,0.14797 -1.17827,0.0956 l -0.98956,-0.0592 -0.26306,0.25188 -0.26305,0.25189 0.0602,0.92843 c 0.0717,1.10688 0.0321,1.30855 -0.28526,1.45668 -1.02173,0.47679 -2.97365,1.22287 -3.14563,1.20234 -0.13855,-0.0166 -0.43698,-0.27935 -0.86725,-0.76372 -0.56704,-0.63834 -0.6985,-0.74204 -0.96906,-0.76453 -0.29077,-0.0241 -0.34891,0.016 -0.81809,0.56474 -0.71191,0.83271 -0.89029,0.98282 -1.15761,0.97421 -0.12874,-0.004 -0.86822,-0.27068 -1.64328,-0.59232 z"
       id="path4230"
       inkscape:connector-curvature="0"
       inkscape:export-filename="/var/www/dev/ico/other/vw.png"
       inkscape:export-xdpi="81.899529"
       inkscape:export-ydpi="81.899529" />
    <path
       style="fill:#ffcc00;fill-opacity:1;stroke:none;stroke-width:1;stroke-linejoin:round;stroke-miterlimit:4;stroke-dasharray:none;stroke-opacity:1"
       d="m 341.64058,702.51188 -0.92604,-0.37719 0,-1.06737 0,-1.06735 -0.58505,-0.59728 -0.58504,-0.59727 -1.11695,-0.0379 -1.11695,-0.0379 -0.37573,-0.92603 -0.37574,-0.92604 0.71384,-0.66144 c 0.69046,-0.63978 0.71658,-0.68962 0.79734,-1.52134 l 0.0835,-0.85988 -0.73703,-0.72308 c -0.40537,-0.39769 -0.73704,-0.7989 -0.73704,-0.89157 0,-0.0926 0.15811,-0.56343 0.35134,-1.04614 l 0.35135,-0.87765 0.99292,0.09 0.99291,0.09 0.69269,-0.68408 0.69268,-0.68407 -0.0699,-1.01979 -0.0699,-1.0198 1.00473,-0.40921 1.00473,-0.40922 0.6379,0.73223 0.63789,0.73222 0.92126,0.064 0.92126,0.064 0.63599,-0.7411 c 0.3498,-0.40761 0.72125,-0.74111 0.82543,-0.74111 0.10414,0 0.58183,0.1571 1.06145,0.3491 l 0.87203,0.34911 -0.0394,1.03941 -0.0394,1.0394 0.65272,0.66268 0.65272,0.66268 1.00397,-0.0837 1.00396,-0.0837 0.41698,0.97599 0.41698,0.97599 -0.72214,0.7057 -0.72213,0.7057 0,0.9206 0,0.92059 0.72221,0.68878 0.72221,0.68878 -0.37616,0.92603 -0.37616,0.92603 -1.05045,0.038 -1.05044,0.038 -0.64332,0.65315 -0.64332,0.65313 -0.008,1.01735 -0.008,1.01734 -0.91952,0.37768 -0.91952,0.37769 -0.73794,-0.73025 -0.73794,-0.73023 -0.9222,0.006 -0.92219,0.006 -0.58945,0.72117 c -0.32419,0.39664 -0.62184,0.71944 -0.66144,0.71732 -0.0396,-0.002 -0.48872,-0.1736 -0.99803,-0.38105 z"
       id="path4189"
       inkscape:connector-curvature="0"
       inkscape:export-filename="/var/www/dev/ico/other/vw.png"
       inkscape:export-xdpi="81.899529"
       inkscape:export-ydpi="81.899529" />
    <path
       style="fill:#000000"
       d="m 344.28517,697.53379 c -0.83532,-0.18744 -1.49615,-0.65993 -1.97936,-1.41532 -1.10274,-1.72387 -0.0342,-4.09614 2.02788,-4.50204 1.56535,-0.30811 3.15889,0.78723 3.49208,2.40035 0.099,0.47865 0.099,0.64592 3e-4,1.12316 -0.22824,1.10502 -1.06667,2.01343 -2.16841,2.34943 -0.36456,0.11126 -0.98539,0.13127 -1.37252,0.0445 z"
       id="path4226"
       inkscape:connector-curvature="0"
       inkscape:export-filename="/var/www/dev/ico/other/vw.png"
       inkscape:export-xdpi="81.899529"
       inkscape:export-ydpi="81.899529" />
    <path
       style="fill:#ffffff;fill-opacity:1;stroke:none;stroke-width:1;stroke-linejoin:round;stroke-miterlimit:4;stroke-dasharray:none;stroke-opacity:1"
       d="m 344.37976,696.57635 c -0.59066,-0.14504 -1.09054,-0.53685 -1.33605,-1.04716 -0.5667,-1.17799 -0.0223,-2.52778 1.17718,-2.91895 0.33582,-0.10952 0.85928,-0.1247 1.19449,-0.0347 0.88254,0.2371 1.47528,0.97501 1.52648,1.90041 0.0211,0.38098 -0.0485,0.70461 -0.22874,1.06487 -0.40976,0.81866 -1.40954,1.26234 -2.33336,1.03549 z"
       id="path4203"
       inkscape:connector-curvature="0"
       inkscape:export-filename="/var/www/dev/ico/other/vw.png"
       inkscape:export-xdpi="81.899529"
       inkscape:export-ydpi="81.899529" />
  </g>
</svg>
