<?xml version="1.0" encoding="UTF-8" standalone="no"?>
<!-- Created with Inkscape (http://www.inkscape.org/) -->

<svg
   xmlns:osb="http://www.openswatchbook.org/uri/2009/osb"
   xmlns:dc="http://purl.org/dc/elements/1.1/"
   xmlns:cc="http://creativecommons.org/ns#"
   xmlns:rdf="http://www.w3.org/1999/02/22-rdf-syntax-ns#"
   xmlns:svg="http://www.w3.org/2000/svg"
   xmlns="http://www.w3.org/2000/svg"
   xmlns:sodipodi="http://sodipodi.sourceforge.net/DTD/sodipodi-0.dtd"
   xmlns:inkscape="http://www.inkscape.org/namespaces/inkscape"
   width="210mm"
   height="297mm"
   viewBox="0 0 210 297"
   version="1.1"
   id="svg8"
   inkscape:version="0.92.5 (2060ec1f9f, 2020-04-08)"
   sodipodi:docname="ugroups.svg">
  <defs
     id="defs2">
    <linearGradient
       id="linearGradient4602"
       osb:paint="solid">
      <stop
         style="stop-color:#bb0000;stop-opacity:1;"
         offset="0"
         id="stop4600" />
    </linearGradient>
  </defs>
  <sodipodi:namedview
     id="base"
     pagecolor="#ffffff"
     bordercolor="#666666"
     borderopacity="1.0"
     inkscape:pageopacity="0.0"
     inkscape:pageshadow="2"
     inkscape:zoom="1.979899"
     inkscape:cx="91.027661"
     inkscape:cy="658.92905"
     inkscape:document-units="mm"
     inkscape:current-layer="layer1"
     showgrid="false"
     inkscape:window-width="1680"
     inkscape:window-height="979"
     inkscape:window-x="0"
     inkscape:window-y="0"
     inkscape:window-maximized="1" />
  <metadata
     id="metadata5">
    <rdf:RDF>
      <cc:Work
         rdf:about="">
        <dc:format>image/svg+xml</dc:format>
        <dc:type
           rdf:resource="http://purl.org/dc/dcmitype/StillImage" />
        <dc:title></dc:title>
      </cc:Work>
    </rdf:RDF>
  </metadata>
  <g
     inkscape:label="Ebene 1"
     inkscape:groupmode="layer"
     id="layer1">
    <path
       style="fill:#000000;stroke-width:0.26458335"
       d=""
       id="path23"
       inkscape:connector-curvature="0" />
    <path
       style="fill:#000000;stroke-width:0.26458335"
       d=""
       id="path21"
       inkscape:connector-curvature="0" />
    <path
       style="fill:#dcb028;stroke-width:0.02235583"
       d="m 55.151394,91.161046 c -0.334211,-0.0654 -0.623378,-0.37027 -0.618534,-0.72019 -0.03964,-0.55031 0.04725,-1.15821 0.426657,-1.58347 0.1854,-0.17495 0.466376,-0.30108 0.723084,-0.23445 0.311584,0.15696 0.621182,0.38882 0.990386,0.35506 0.323748,-0.0121 0.58259,-0.22332 0.861711,-0.35731 0.269545,-0.0633 0.558526,0.0742 0.745461,0.26607 0.345315,0.37786 0.410831,0.92063 0.417192,1.41205 0.0089,0.29678 -0.109525,0.61111 -0.381136,0.76033 -0.295188,0.18603 -0.659209,0.11002 -0.988281,0.13425 -0.725249,8e-5 -1.45264,0.0133 -2.17654,-0.0323 z m 1.118689,-2.61614 c -0.549447,-0.1443 -0.966479,-0.71296 -0.892769,-1.28507 0.04434,-0.65387 0.70468,-1.18183 1.352836,-1.07878 0.528598,0.0622 0.981259,0.5066 1.04198,1.03787 0.113546,0.68902 -0.497074,1.39516 -1.200055,1.35806 -0.101236,-9.9e-4 -0.203544,-0.007 -0.301992,-0.0321 z"
       id="path4630"
       inkscape:connector-curvature="0"
       inkscape:export-filename="/var/www/html/cms/core/icons/buttons/user.png"
       inkscape:export-xdpi="96"
       inkscape:export-ydpi="96" />
    <path
       style="fill:#ff6600;stroke-width:0.01764935;stroke:#111b00;stroke-opacity:1"
       d="m 28.241899,82.149728 c -0.263851,-0.0516 -0.49214,-0.292318 -0.488316,-0.568574 -0.03129,-0.434454 0.0373,-0.914376 0.336834,-1.250105 0.146369,-0.138119 0.368192,-0.237698 0.570857,-0.185093 0.245987,0.123916 0.490407,0.306961 0.781884,0.280311 0.255591,-0.0095 0.459939,-0.176305 0.680299,-0.282091 0.212798,-0.04997 0.440941,0.0586 0.588522,0.210061 0.272617,0.298306 0.32434,0.72681 0.329362,1.114777 0.007,0.234295 -0.08647,0.482453 -0.300897,0.600261 -0.233043,0.146861 -0.520428,0.08685 -0.780223,0.105981 -0.572565,6.3e-5 -1.146821,0.01052 -1.718322,-0.02553 z m 0.883176,-2.065377 c -0.433774,-0.113922 -0.763009,-0.562864 -0.704817,-1.014525 0.03501,-0.516214 0.556327,-0.933025 1.068028,-0.851672 0.417315,0.0491 0.77468,0.399948 0.822616,0.819375 0.08964,0.543956 -0.392426,1.101443 -0.947412,1.072154 -0.07992,-7.74e-4 -0.160693,-0.0054 -0.238415,-0.02533 z"
       id="path36-3"
       inkscape:connector-curvature="0"
       inkscape:export-xdpi="96"
       inkscape:export-ydpi="96"
       inkscape:export-filename="/var/www/html/cms/core/icons/buttons/ugroups.png" />
    <path
       style="fill:#48d800;stroke-width:0.01764935;stroke:#111300;stroke-opacity:1"
       d="m 31.021262,81.806545 c -0.263851,-0.0516 -0.49214,-0.292319 -0.488316,-0.568574 -0.03129,-0.434454 0.0373,-0.914376 0.336834,-1.250105 0.146369,-0.138119 0.368191,-0.237698 0.570857,-0.185093 0.245986,0.123916 0.490406,0.306961 0.781884,0.280311 0.25559,-0.0095 0.459938,-0.176305 0.680298,-0.282091 0.212798,-0.04997 0.440941,0.0586 0.588523,0.210061 0.272617,0.298306 0.32434,0.72681 0.329361,1.114777 0.007,0.234294 -0.08647,0.482452 -0.300896,0.600261 -0.233044,0.146861 -0.520429,0.08685 -0.780224,0.105981 -0.572565,6.3e-5 -1.146821,0.01052 -1.718321,-0.02553 z m 0.883175,-2.065377 c -0.433773,-0.113922 -0.763008,-0.562864 -0.704816,-1.014525 0.03501,-0.516214 0.556326,-0.933025 1.068027,-0.851672 0.417315,0.0491 0.77468,0.399948 0.822617,0.819375 0.08964,0.543956 -0.392426,1.101443 -0.947412,1.072154 -0.07992,-7.74e-4 -0.160694,-0.0054 -0.238416,-0.02533 z"
       id="path36-6"
       inkscape:connector-curvature="0"
       inkscape:export-xdpi="96"
       inkscape:export-ydpi="96"
       inkscape:export-filename="/var/www/html/cms/core/icons/buttons/ugroups.png" />
    <path
       style="fill:#000000;stroke-width:0.02827301"
       d="m 65.387032,91.006079 c -0.187486,-0.13006 -0.250144,-0.364587 -0.239096,-0.582367 -0.01338,-0.656137 -0.03829,-1.31337 -0.01341,-1.969261 0.04244,-0.233602 0.232291,-0.459661 0.487028,-0.453486 0.740536,-0.0452 1.483426,-0.03206 2.22514,-0.03925 0.246012,-9.79e-4 0.492025,-0.002 0.738037,-0.0029 0.149947,0.129697 0.355797,0.246138 0.355972,0.470442 0.06743,0.711463 0.03542,1.427554 0.0431,2.141323 0.01499,0.111941 -0.08932,0.192278 -0.139909,0.28219 -0.08166,0.02953 -0.106281,0.143838 -0.189899,0.13315 -0.147478,0.106258 -0.404845,0.03404 -0.598146,0.05869 -0.84236,0.0013 -1.685362,0.01611 -2.527316,-0.01318 -0.04749,-0.0049 -0.09709,-0.0055 -0.141506,-0.02532 z m 1.809294,-0.76344 c 0.142437,-0.169786 -0.002,-0.432692 0.09876,-0.623759 0.229276,-0.155612 0.199539,-0.559483 -0.06339,-0.660832 -0.163108,-0.02958 -0.371506,0.01984 -0.496001,0.07128 0.101969,0.02961 -0.109962,0.274436 -0.03841,0.40038 0.09966,0.188138 0.21512,0.36835 0.167183,0.600287 -0.03452,0.196372 0.166824,0.329404 0.331863,0.212647 z m -0.255824,-1.358446 c -0.104156,-0.03181 -0.04396,0.05125 0,0 z m 0.3468,-0.08788 c -0.05917,-0.126654 0.02597,0.223117 0.01881,0.04576 z m 0.565594,-1.257359 c 0.01479,-0.320542 -0.09724,-0.659719 -0.373737,-0.844887 -0.190776,-0.105543 -0.459982,-0.154765 -0.66338,-0.08192 -0.135712,0.02845 -0.232104,0.134472 -0.334124,0.220195 -0.02942,-0.02197 -0.172902,-0.157046 -0.116251,-0.09367 0.189916,0.132422 -0.0485,0.307973 -0.03957,0.482818 -0.03454,0.171499 -0.02671,0.346777 -0.02795,0.520592 -0.197913,0 -0.395825,0 -0.593738,0 -0.0064,-0.395516 -0.0024,-0.819465 0.243941,-1.152167 0.06421,-0.07083 0.227195,-0.128251 0.06706,-0.08576 0.211364,-0.284313 0.555114,-0.476561 0.91399,-0.480945 0.252134,-0.0047 0.514858,0.0084 0.748724,0.110638 0.125408,0.113291 0.354512,0.174241 0.442484,0.375596 0.04015,0.149941 0.187954,0.262028 0.203107,0.47475 0.04638,0.233031 0.100717,0.474946 0.07144,0.712602 -0.09484,0.122018 -0.277099,0.05884 -0.415296,0.07356 -0.09841,0.01815 -0.15358,-0.0069 -0.126703,-0.114083 0,-0.0391 0,-0.07821 0,-0.117313 z m 0.01246,-0.548607 c -0.06664,-0.301108 -3.71e-4,0.246356 0,0 z m -1.83942,-0.338248 c -0.01072,-0.110805 -0.06681,0.12792 0,0 z M 66.68965,86.55151 c -0.05033,-0.01437 0.08812,-0.06306 -0.022,-0.03933 -0.0798,0.06303 0.09359,0.131069 0.022,0.03933 z"
       id="path4627"
       inkscape:connector-curvature="0"
       inkscape:export-filename="/var/www/html/cms/core/icons/buttons/lock.png"
       inkscape:export-xdpi="96"
       inkscape:export-ydpi="96" />
    <path
       style="fill:#000000;stroke-width:0.02974341"
       d="m 52.891458,136.63929 c -0.08876,-0.21182 -0.03252,-0.46733 -0.0515,-0.69641 -0.001,-0.52508 -3.67e-4,-1.05016 -5.5e-4,-1.57524 -0.565125,-0.56636 -1.130249,-1.13272 -1.695374,-1.69908 0.0086,-0.31103 -0.02217,-0.62631 0.02554,-0.93387 0.188405,-0.14698 0.483365,-0.0531 0.714997,-0.0858 1.334677,-0.003 2.669663,-0.0144 4.004166,0.008 0.329555,-0.0711 0.286408,0.30493 0.281912,0.51868 5.3e-5,0.16421 9e-6,0.32841 2.3e-5,0.49262 -0.565124,0.56636 -1.130249,1.13272 -1.695374,1.69908 -0.0057,0.54869 0.01538,1.0985 -0.0195,1.64625 -0.119001,0.17208 -0.405002,0.19155 -0.59054,0.29957 -0.301306,0.12084 -0.600314,0.24851 -0.90626,0.35705 l -0.02623,-0.01 z m 0.793179,-0.54787 c 0.174213,-0.0694 0.348426,-0.13881 0.522639,-0.2082 9.1e-5,-0.48086 2.03e-4,-0.96171 3.26e-4,-1.44256 -0.366835,0 -0.73367,0 -1.100506,0 0.0055,0.61783 -0.01548,1.23674 0.02156,1.85366 0.163706,-0.0235 0.37783,-0.14372 0.555979,-0.2029 z m 1.409144,-2.73027 c 0.270471,-0.2706 0.540942,-0.54121 0.811413,-0.81182 -0.0057,-0.20733 -0.01139,-0.41466 -0.01709,-0.62199 -1.487171,0 -2.974341,0 -4.461511,0 -0.0057,0.20733 -0.01139,0.41466 -0.01709,0.62199 0.540942,0.54122 1.081884,1.08243 1.622827,1.62364 0.416678,0 0.833356,0 1.250034,0 0.270471,-0.27061 0.540941,-0.54121 0.811412,-0.81182 z"
       id="path4644"
       inkscape:connector-curvature="0" />
  </g>
  <g
     inkscape:groupmode="layer"
     id="layer2"
     inkscape:label="Ebene 2">
    <path
       style="fill:#ffd42a;stroke-width:0.01764935;stroke:#bb0000;stroke-opacity:1"
       d="m 29.457437,82.861017 c -0.263851,-0.0516 -0.49214,-0.292319 -0.488316,-0.568574 -0.03129,-0.434454 0.0373,-0.914376 0.336834,-1.250105 0.146369,-0.138119 0.368192,-0.237698 0.570857,-0.185093 0.245987,0.123916 0.490407,0.306961 0.781884,0.280311 0.255591,-0.0095 0.459939,-0.176305 0.680299,-0.282091 0.212798,-0.04997 0.440941,0.0586 0.588522,0.210061 0.272617,0.298306 0.32434,0.72681 0.329362,1.114777 0.007,0.234294 -0.08647,0.482452 -0.300897,0.600261 -0.233043,0.146861 -0.520428,0.08685 -0.780223,0.105981 -0.572565,6.3e-5 -1.146821,0.01052 -1.718322,-0.02553 z m 0.883176,-2.065377 c -0.433774,-0.113922 -0.763009,-0.562864 -0.704817,-1.014525 0.03501,-0.516214 0.556327,-0.933025 1.068028,-0.851672 0.417315,0.0491 0.77468,0.399948 0.822616,0.819375 0.08964,0.543956 -0.392426,1.101443 -0.947412,1.072154 -0.07992,-7.74e-4 -0.160693,-0.0054 -0.238415,-0.02533 z"
       id="path36"
       inkscape:connector-curvature="0"
       inkscape:export-xdpi="96"
       inkscape:export-ydpi="96"
       inkscape:export-filename="/var/www/html/cms/core/icons/buttons/ugroups.png" />
  </g>
</svg>
